<?xml version="1.0" encoding="utf-8"?>
<!-- Generator: Adobe Illustrator 21.0.0, SVG Export Plug-In . SVG Version: 6.00 Build 0)  -->
<svg version="1.1" id="Capa_1" xmlns="http://www.w3.org/2000/svg" xmlns:xlink="http://www.w3.org/1999/xlink" x="0px" y="0px"
	 viewBox="0 0 283.5 283.5" style="enable-background:new 0 0 283.5 283.5;" xml:space="preserve">
<style type="text/css">
	.st0{fill:#6A8CC8;}
	.st1{fill:#6A8CC8;stroke:#000000;stroke-miterlimit:10;}
	.st2{fill:none;stroke:#000000;stroke-miterlimit:10;}
	.st3{fill:#FFFFFF;}
</style>
<path class="st0" d="M267,76.1H15.1c-5.7,0-10.3-4.6-10.3-10.3v-9h274v7.6C278.7,70.8,273.5,76.1,267,76.1z"/>
<polyline class="st0" points="18.6,104.7 18.6,83.1 265.9,83.1 265.9,104.7 "/>
<path class="st1" d="M71.9,102.7"/>
<path class="st2" d="M17.6,242.7"/>
<path class="st2" d="M32.2,244.6"/>
<path class="st0" d="M57.2,101.4c-0.5-0.7-5.1-6.6-12.3-6.3c-5.1,0.2-11,3.6-11.7,7.7c-0.1,0.7,0.3,138,0,141.3
	c-0.2,1.7-0.6,3-1.7,4c-1.3,1.2-3.1,1.5-4,1.7c-0.6,0.1-1.8,0.2-3.2,0c-0.9-0.1-2.8-0.4-4.1-1.7c0,0-1.4-1.4-1.7-4.1
	c-0.6-6,0-145,0-153.2"/>
<path class="st1" d="M96.7,102.7"/>
<path class="st0" d="M265.8,102.7c0,0.1,0,0.7,0,2c0,17,0.3,136.3,0,139.3c-0.2,1.7-0.6,3-1.6,4c-1.2,1.2-3,1.5-3.9,1.7
	c-0.6,0.1-1.7,0.2-3,0c-0.9-0.1-2.7-0.4-4-1.7c0,0-1.4-1.4-1.6-4.1c-0.5-5.1-0.2-103.7-0.1-138.2c0-5.6,0.1-3.8,0.1-5.1"/>
<path class="st0" d="M96.9,101.5v2.4l-0.8-2.5c-0.5-0.7-5.1-6.6-12.3-6.3c-5.1,0.2-11,3.6-11.7,7.7c-0.1,0.7,0.3,138,0,141.3
	c-0.2,1.7-0.6,3-1.7,4c-1.3,1.2-3.1,1.5-4,1.7c-0.6,0.1-1.8,0.2-3.2,0c-0.9-0.1-2.8-0.4-4.1-1.7c0,0-1.4-1.4-1.7-4.1
	c-0.5-5.2-0.2-108.1,0-142.5"/>
<path class="st0" d="M135.6,100.7c-0.5-0.7-5.1-6.6-12.3-6.3c-5.1,0.2-11,3.6-11.7,7.7c-0.1,0.7,0.3,138,0,141.3
	c-0.2,1.7-0.6,3-1.7,4c-1.3,1.2-3.1,1.5-4,1.7c-0.6,0.1-1.8,0.2-3.2,0c-0.9-0.1-2.8-0.4-4.1-1.7c0,0-1.4-1.4-1.7-4.1
	c-0.6-6,0.3-128.4,0-139.3"/>
<path class="st0" d="M174.1,101.4c-0.5-0.7-5.1-6.6-12.3-6.3c-5.1,0.2-11,3.6-11.7,7.7c-0.1,0.7,0.3,138,0,141.3
	c-0.2,1.7-0.6,3-1.7,4c-1.3,1.2-3.1,1.5-4,1.7c-0.6,0.1-1.8,0.2-3.2,0c-0.9-0.1-2.8-0.4-4.1-1.7c0,0-1.4-1.4-1.7-4.1
	c-0.5-5.2-0.2-109.6,0-143.2"/>
<path class="st0" d="M213.2,101.4c-0.5-0.7-5.1-6.6-12.3-6.3c-5.1,0.2-11,3.6-11.7,7.7c-0.1,0.7,0.3,138,0,141.3
	c-0.2,1.7-0.6,3-1.7,4c-1.3,1.2-3.1,1.5-4,1.7c-0.6,0.1-1.8,0.2-3.2,0c-0.9-0.1-2.8-0.4-4.1-1.7c0,0-1.3-1.4-1.7-4.1
	c-0.6-4.2-0.8-42.9-0.4-141.8"/>
<path class="st0" d="M251.7,101.4c-0.5-0.7-5.1-6.6-12.3-6.3c-5.1,0.2-11,3.6-11.7,7.7c-0.1,0.7,0.3,138,0,141.3
	c-0.2,1.7-0.6,3-1.7,4c-1.3,1.2-3.1,1.5-4,1.7c-0.6,0.1-1.8,0.2-3.2,0c-0.9-0.1-2.8-0.4-4.1-1.7c0,0-1.4-1.4-1.7-4.1
	c-0.5-5.2-0.2-108.1,0-142.5"/>
<ellipse class="st3" cx="45.2" cy="104.9" rx="12" ry="9.8"/>
<ellipse class="st3" cx="84.6" cy="104.9" rx="12.3" ry="9.8"/>
<ellipse class="st3" cx="201" cy="104.9" rx="11.8" ry="9.8"/>
<ellipse class="st3" cx="239.7" cy="104.9" rx="11.8" ry="9.8"/>
<ellipse class="st3" cx="123.4" cy="104.9" rx="11.8" ry="9.8"/>
<ellipse class="st3" cx="162.2" cy="104.9" rx="11.8" ry="9.8"/>
</svg>
